<svg id="Group_15" data-name="Group 15" xmlns="http://www.w3.org/2000/svg" width="88.818" height="88.818" viewBox="0 0 88.818 88.818">
  <g id="Group_14" data-name="Group 14">
    <path id="Path_72" data-name="Path 72" d="M87.338,85.858H78.456V37.008a1.48,1.48,0,0,0-1.48-1.48H56.252V1.48A1.48,1.48,0,0,0,54.771,0H16.283A1.48,1.48,0,0,0,14.8,1.48V85.858H1.48a1.48,1.48,0,0,0,0,2.961H87.338a1.48,1.48,0,0,0,0-2.961Zm-56.252,0H25.165V72.535a1.48,1.48,0,0,1,1.48-1.48h2.961a1.48,1.48,0,0,1,1.48,1.48Zm5.921-48.85v48.85H34.047V72.535a4.441,4.441,0,0,0-4.441-4.441H26.645A4.441,4.441,0,0,0,22.2,72.535V85.858H17.764V2.961H53.291V35.527h-14.8A1.48,1.48,0,0,0,37.008,37.008ZM75.5,85.858H39.968V38.488H75.5Z"/>
    <path id="Path_73" data-name="Path 73" d="M210.362,112H201.48a1.48,1.48,0,0,0-1.48,1.48v8.882a1.48,1.48,0,0,0,1.48,1.48h8.882a1.48,1.48,0,0,0,1.48-1.48V113.48A1.48,1.48,0,0,0,210.362,112Zm-1.48,8.882h-5.921v-5.921h5.921Z" transform="translate(-162.992 -91.276)"/>
    <path id="Path_74" data-name="Path 74" d="M210.362,32H201.48A1.48,1.48,0,0,0,200,33.48v8.882a1.48,1.48,0,0,0,1.48,1.48h8.882a1.48,1.48,0,0,0,1.48-1.48V33.48A1.48,1.48,0,0,0,210.362,32Zm-1.48,8.882h-5.921V34.961h5.921Z" transform="translate(-162.992 -26.079)"/>
    <path id="Path_75" data-name="Path 75" d="M130.362,112H121.48a1.48,1.48,0,0,0-1.48,1.48v8.882a1.48,1.48,0,0,0,1.48,1.48h8.882a1.48,1.48,0,0,0,1.48-1.48V113.48A1.48,1.48,0,0,0,130.362,112Zm-1.48,8.882h-5.921v-5.921h5.921Z" transform="translate(-97.795 -91.276)"/>
    <path id="Path_76" data-name="Path 76" d="M130.362,32H121.48A1.48,1.48,0,0,0,120,33.48v8.882a1.48,1.48,0,0,0,1.48,1.48h8.882a1.48,1.48,0,0,0,1.48-1.48V33.48A1.48,1.48,0,0,0,130.362,32Zm-1.48,8.882h-5.921V34.961h5.921Z" transform="translate(-97.795 -26.079)"/>
    <path id="Path_77" data-name="Path 77" d="M130.362,192H121.48a1.48,1.48,0,0,0-1.48,1.48v8.882a1.48,1.48,0,0,0,1.48,1.48h8.882a1.48,1.48,0,0,0,1.48-1.48V193.48A1.48,1.48,0,0,0,130.362,192Zm-1.48,8.882h-5.921v-5.921h5.921Z" transform="translate(-97.795 -156.473)"/>
    <path id="Path_78" data-name="Path 78" d="M130.362,272H121.48a1.48,1.48,0,0,0-1.48,1.48v8.882a1.48,1.48,0,0,0,1.48,1.48h8.882a1.48,1.48,0,0,0,1.48-1.48V273.48A1.48,1.48,0,0,0,130.362,272Zm-1.48,8.882h-5.921v-5.921h5.921Z" transform="translate(-97.795 -221.67)"/>
    <path id="Path_79" data-name="Path 79" d="M321.48,315.842h8.882a1.48,1.48,0,0,0,1.48-1.48V305.48a1.48,1.48,0,0,0-1.48-1.48H321.48a1.48,1.48,0,0,0-1.48,1.48v8.882A1.48,1.48,0,0,0,321.48,315.842Zm1.48-8.882h5.921v5.921h-5.921Z" transform="translate(-260.788 -247.748)"/>
    <path id="Path_80" data-name="Path 80" d="M321.48,235.842h8.882a1.48,1.48,0,0,0,1.48-1.48V225.48a1.48,1.48,0,0,0-1.48-1.48H321.48a1.48,1.48,0,0,0-1.48,1.48v8.882A1.48,1.48,0,0,0,321.48,235.842Zm1.48-8.882h5.921v5.921h-5.921Z" transform="translate(-260.788 -182.552)"/>
    <path id="Path_81" data-name="Path 81" d="M321.48,395.842h8.882a1.48,1.48,0,0,0,1.48-1.48V385.48a1.48,1.48,0,0,0-1.48-1.48H321.48a1.48,1.48,0,0,0-1.48,1.48v8.882A1.48,1.48,0,0,0,321.48,395.842Zm1.48-8.882h5.921v5.921h-5.921Z" transform="translate(-260.788 -312.945)"/>
    <path id="Path_82" data-name="Path 82" d="M241.48,315.842h8.882a1.48,1.48,0,0,0,1.48-1.48V305.48a1.48,1.48,0,0,0-1.48-1.48H241.48a1.48,1.48,0,0,0-1.48,1.48v8.882A1.48,1.48,0,0,0,241.48,315.842Zm1.48-8.882h5.921v5.921h-5.921Z" transform="translate(-195.591 -247.748)"/>
    <path id="Path_83" data-name="Path 83" d="M241.48,235.842h8.882a1.48,1.48,0,0,0,1.48-1.48V225.48a1.48,1.48,0,0,0-1.48-1.48H241.48a1.48,1.48,0,0,0-1.48,1.48v8.882A1.48,1.48,0,0,0,241.48,235.842Zm1.48-8.882h5.921v5.921h-5.921Z" transform="translate(-195.591 -182.552)"/>
    <path id="Path_84" data-name="Path 84" d="M241.48,395.842h8.882a1.48,1.48,0,0,0,1.48-1.48V385.48a1.48,1.48,0,0,0-1.48-1.48H241.48a1.48,1.48,0,0,0-1.48,1.48v8.882A1.48,1.48,0,0,0,241.48,395.842Zm1.48-8.882h5.921v5.921h-5.921Z" transform="translate(-195.591 -312.945)"/>
  </g>
</svg>
