<svg xmlns="http://www.w3.org/2000/svg" width="169.151" height="45.447" viewBox="0 0 169.151 45.447">
  <g id="Group_32" data-name="Group 32" transform="translate(-2689.267 -1222.553)">
    <g id="_2136416979808" transform="translate(2689.267 1222.553)">
      <path id="Path_11" data-name="Path 11" d="M16063.472,17387a2.487,2.487,0,1,1-2.472,2.473A2.485,2.485,0,0,1,16063.472,17387Zm0,.525a1.965,1.965,0,0,1,1.977,1.947,1.991,1.991,0,0,1-1.977,1.977,1.965,1.965,0,0,1-1.946-1.977A1.939,1.939,0,0,1,16063.472,17387.525Zm1.2,1.268-.494.277a.691.691,0,0,0-.587-.248.706.706,0,0,0-.494.186.578.578,0,0,0-.217.494.6.6,0,0,0,.711.648.655.655,0,0,0,.587-.246l.464.309a1.2,1.2,0,0,1-1.051.494,1.368,1.368,0,0,1-.927-.34,1.124,1.124,0,0,1-.371-.865,1.187,1.187,0,0,1,.155-.648,1.551,1.551,0,0,1,.464-.434,1.691,1.691,0,0,1,.679-.152A1.234,1.234,0,0,1,16064.676,17388.793Z" transform="translate(-15896.822 -17387)" fill="#fff" fill-rule="evenodd"/>
      <g id="Group_3" data-name="Group 3" transform="translate(0 0.124)">
        <g id="Group_2" data-name="Group 2">
          <path id="Path_12" data-name="Path 12" d="M11798,18435.379l2.349-2.379,5.282,5.377h5.253l5.406,5.438-2.379,2.316-4.542-4.635-5.282.031Z" transform="translate(-11765.528 -18400.807)" fill="#fff" fill-rule="evenodd"/>
          <path id="Path_13" data-name="Path 13" d="M10747,17427.643V17391h36.643v36.643H10747Zm17.209-30.123-10.752,10.75,25.551,14.707Zm16.1,21.039v-24.221h-14.12Zm-29.968-8.248v13.994h24.283Zm12.326-15.973h-12.326v12.326Z" transform="translate(-10747 -17391)" fill="#fff" fill-rule="evenodd"/>
        </g>
        <path id="Path_14" data-name="Path 14" d="M15597,17552.8h6.766v7.014h2.936V17544h-2.936v6.055H15597V17544h-3v15.818h3Z" transform="translate(-15444.25 -17539.273)" fill="#fff"/>
        <path id="Path_15" data-name="Path 15" d="M15029.218,17546.531c.618,2.07,1.391,4.449,2.225,6.768h-5.283c.834-2.379,1.669-4.7,2.44-6.768Zm4.6,13.287h3.306c-1.761-4.2-4.078-10.721-5.685-15.818h-4.727c-1.916,4.727-4.233,11.121-5.716,15.818h3.15c.341-1.205.773-2.533,1.206-3.955h6.951C15032.8,17557.346,15033.357,17558.707,15033.821,17559.818Z" transform="translate(-14888.953 -17539.273)" fill="#fff"/>
        <path id="Path_16" data-name="Path 16" d="M14526.875,17546.594v13.225h2.935V17544h-10.628a58.623,58.623,0,0,1-3.182,15.818h3.15a54.69,54.69,0,0,0,2.781-13.225Z" transform="translate(-14399.556 -17539.273)" fill="#fff"/>
        <path id="Path_17" data-name="Path 17" d="M14020,17546.594h6.767v13.225h2.935V17544H14017v15.818h3Z" transform="translate(-13915.972 -17539.273)" fill="#fff"/>
        <path id="Path_18" data-name="Path 18" d="M13461.563,17544h-3.613c-2.133,3.953-4.542,8-7.014,11.957V17544H13448v15.818h3.924c2.317-3.584,4.6-7.57,6.7-11.432v11.432h2.935Z" transform="translate(-13364.552 -17539.273)" fill="#fff"/>
        <path id="Path_19" data-name="Path 19" d="M12956,17559.818v-5.221h5.314c3.059,0,4.355-2.441,4.355-5.16,0-3.09-1.08-5.437-4.417-5.437H12953v15.818Zm0-7.725v-5.562h4.48c1.236,0,1.885.961,1.885,2.875,0,1.793-.711,2.688-1.947,2.688Z" transform="translate(-12884.845 -17539.273)" fill="#fff"/>
        <path id="Path_20" data-name="Path 20" d="M12331,17551.908l.031-2.07c.03-2.006,1.575-2.377,3.553-2.439v8.9C12331.492,17556.2,12330.936,17555.555,12331,17551.908Zm10.319,0c0,.311,0,1.268-.031,1.545-.123,2.039-.865,2.781-3.738,2.844v-8.93c3.151.094,3.461,1.145,3.707,2.5A14.068,14.068,0,0,1,12341.316,17551.908Zm-6.735-7.908v.895c-6.179.34-6.581,3.09-6.581,6.984,0,3.922.4,6.641,6.581,6.889v1.051h2.966v-1.051c5.314-.248,7.044-2.01,6.8-6.889-.031-.588,0-1.916-.062-2.473-.432-2.965-2.224-4.2-6.734-4.418V17544Z" transform="translate(-12279.154 -17539.273)" fill="#fff"/>
        <path id="Path_21" data-name="Path 21" d="M12344.854,18177.164a20.913,20.913,0,0,1-.865,4.787H12343l.277,2.473h.834v-1.514h4.6v1.514h.834l.248-2.473h-1.051v-4.787Zm2.812.957v3.83h-2.565a22.376,22.376,0,0,0,.742-3.83Zm6.89,4.789h1.051v-5.746h-1.051a38.958,38.958,0,0,1-2.719,4.17v-4.17h-1.082v5.746h1.082a38.13,38.13,0,0,0,2.719-4.018Zm3.553-2.658h.865c1.081,0,1.514.248,1.514.928,0,.711-.34.926-1.606.926a4.862,4.862,0,0,1-1.729-.246l-.248.957a7.525,7.525,0,0,0,1.978.248c1.885,0,2.719-.4,2.719-1.7a1.348,1.348,0,0,0-1.514-1.514c1.112-.094,1.359-.682,1.359-1.422,0-.988-.68-1.422-2.564-1.422a8.74,8.74,0,0,0-1.915.217l.216.928a6.444,6.444,0,0,1,1.7-.217c1.144,0,1.452.217,1.452.742,0,.555-.371.709-1.359.709h-.865Zm9.609-1.02c0-1.73-.742-2.225-2.41-2.225a7.52,7.52,0,0,0-2.1.279l.217.926a4.891,4.891,0,0,1,1.7-.277c1.267,0,1.575.277,1.575,1.482a6.627,6.627,0,0,0-1.544-.186c-1.3,0-2.256.279-2.256,1.885,0,1.514.648,1.947,2.379,1.947a7.116,7.116,0,0,0,2.441-.465Zm-1.021,2.719a3.932,3.932,0,0,1-1.358.246c-1.021,0-1.3-.152-1.3-1.111,0-.895.34-1.018,1.3-1.018a5.932,5.932,0,0,1,1.358.123Zm6.488.959h1.05v-5.746h-1.05a38.958,38.958,0,0,1-2.719,4.17v-4.17h-1.081v5.746h1.081a38.13,38.13,0,0,0,2.719-4.018Zm-2.935-7.91c0,1.02.555,1.484,1.575,1.484,1.05,0,1.606-.465,1.606-1.484h-.741c.03.619-.37.742-.835.742-.555,0-.834-.156-.834-.742Zm9.423,5.283v2.627h1.081v-5.746h-1.081v2.191h-2.657v-2.191h-1.081v5.746h1.081v-2.627Zm9.7,2.627h1.051v-5.746h-1.051a38.809,38.809,0,0,1-2.719,4.17v-4.17h-1.081v5.746h1.081a37.834,37.834,0,0,0,2.719-4.018Zm6.488-2.627v2.627h1.082v-5.746h-1.082v2.191h-2.656v-2.191h-1.082v5.746h1.082v-2.627Zm5.222-2.162h2.1v-.957h-5.283v.957h2.1v4.789h1.081Zm7.384,3.738a6.384,6.384,0,0,1-1.637.246c-1.175,0-1.7-.309-1.7-1.854h3.893c.062-2.625-.711-3.244-2.41-3.244s-2.626.711-2.626,3c0,2.35,1.02,3.061,2.718,3.061a8.692,8.692,0,0,0,1.947-.311Zm-1.822-3.955c.926,0,1.266.248,1.328,1.482h-2.842C12405.223,18178.244,12405.594,18177.9,12406.645,18177.9Zm4.85.248a4.236,4.236,0,0,1,1.329-.217c1.174,0,1.575.34,1.575,2.1,0,1.639-.4,2.07-1.575,2.07-.711,0-1.329-.246-1.329-.68Zm-1.08,6.92h1.08v-2.41a2.551,2.551,0,0,0,1.453.4c1.668,0,2.564-.711,2.564-3.061s-.834-3-2.688-3a6.824,6.824,0,0,0-2.409.434Zm9.639-3.027h-1.947v-1.824h1.916c.557,0,.834.217.834.865C12420.855,18181.8,12420.609,18182.045,12420.053,18182.045Zm-1.947-2.719v-2.162h-1.08v5.746h3.182c1.236,0,1.792-.525,1.792-1.824,0-1.174-.556-1.76-1.792-1.76Zm9.641,2.533a6.2,6.2,0,0,1-1.638.246c-1.144,0-1.7-.309-1.7-1.854h3.892c.063-2.625-.679-3.244-2.409-3.244-1.7,0-2.626.711-2.626,3,0,2.35,1.02,3.061,2.719,3.061a8.949,8.949,0,0,0,1.978-.311Zm-1.823-3.955c.958,0,1.267.248,1.328,1.482h-2.842C12424.5,18178.244,12424.9,18177.9,12425.923,18177.9Zm4.851.248a4.436,4.436,0,0,1,1.359-.217c1.143,0,1.545.34,1.545,2.1,0,1.639-.4,2.07-1.545,2.07-.742,0-1.359-.246-1.359-.68Zm-1.082,6.92h1.082v-2.41a2.661,2.661,0,0,0,1.482.4c1.669,0,2.533-.711,2.533-3.061s-.834-3-2.656-3a7.009,7.009,0,0,0-2.441.434Zm11.246-5.84c0-1.73-.741-2.225-2.439-2.225a7.867,7.867,0,0,0-2.1.279l.217.926a5.016,5.016,0,0,1,1.7-.277c1.267,0,1.576.277,1.576,1.482a6.572,6.572,0,0,0-1.515-.186c-1.328,0-2.285.279-2.285,1.885,0,1.514.648,1.947,2.379,1.947a7.278,7.278,0,0,0,2.471-.465Zm-1.05,2.719a3.685,3.685,0,0,1-1.359.246c-1.021,0-1.267-.152-1.267-1.111,0-.895.309-1.018,1.3-1.018a5.669,5.669,0,0,1,1.329.123Z" transform="translate(-12293.691 -18150.779)" fill="#fff"/>
      </g>
    </g>
  </g>
</svg>
