<svg xmlns="http://www.w3.org/2000/svg" width="74" height="74" viewBox="0 0 74 74">
  <g id="village" transform="translate(0 -0.001)">
    <path id="Path_91" data-name="Path 91" d="M72.117,31.883A1.233,1.233,0,0,0,74,30.834v-7.4a1.233,1.233,0,0,0-.584-1.048L37.65.186a1.235,1.235,0,0,0-1.3,0L19.733,10.5V7.4A1.233,1.233,0,0,0,18.5,6.168H13.567A1.233,1.233,0,0,0,12.333,7.4v7.693L.584,22.386A1.233,1.233,0,0,0,0,23.434v7.4a1.233,1.233,0,0,0,1.883,1.048l3.05-1.893V72.768A1.233,1.233,0,0,0,6.167,74H67.834a1.233,1.233,0,0,0,1.233-1.233V59.994a7.386,7.386,0,0,0,1.973-12.88c-.116-.086-.234-.153-.352-.231a8.576,8.576,0,0,0-1.622-9.731V29.989ZM14.8,8.634h2.467v3.4L14.8,13.56ZM2.467,24.122,37,2.686,71.534,24.12v4.494L37.65,7.586a1.235,1.235,0,0,0-1.3,0L2.467,28.615ZM14.8,71.535V39.468H29.6V71.535Zm39.467,0V54.268h2.467V71.535Zm12.333,0H59.2v-11.1h7.4Zm4.933-18.5a4.947,4.947,0,0,1-3.963,4.839,4.611,4.611,0,0,1-.971.095H59.2V53.035A1.233,1.233,0,0,0,57.967,51.8H53.034A1.233,1.233,0,0,0,51.8,53.035v4.933H43.167a3.7,3.7,0,0,1-3.7-3.7,3.648,3.648,0,0,1,.526-1.861A6.166,6.166,0,0,0,44.4,54.268a1.849,1.849,0,0,0,.453-.047,1.233,1.233,0,0,0-.465-2.42A3.7,3.7,0,0,1,40.7,48.1a3.758,3.758,0,0,1,.036-.52,3.664,3.664,0,0,1,2.025-2.787,3.391,3.391,0,0,1,.825-.3H43.6a3.7,3.7,0,0,1,2.577.37,1.234,1.234,0,1,0,1.21-2.151,6.159,6.159,0,0,0-2.9-.758c-.03,0-.055-.017-.086-.017-.116,0-.227.029-.341.035a6.176,6.176,0,0,0-.617.063c-.087.014-.175.009-.26.026,0-.042-.009-.081-.009-.123A4.947,4.947,0,0,1,47.138,37.1,4.527,4.527,0,0,1,48.1,37a4.889,4.889,0,0,1,2.92.958,1.234,1.234,0,0,0,1.463-1.987,7.332,7.332,0,0,0-4.243-1.425h-.015c.007-.035.022-.067.03-.1a6.208,6.208,0,0,1,.308-.987c.049-.123.116-.229.172-.345a6.07,6.07,0,0,1,.354-.651c.079-.123.169-.237.257-.353a6.178,6.178,0,0,1,.435-.528c.1-.11.212-.213.323-.316a6.2,6.2,0,0,1,.519-.428c.123-.09.247-.177.37-.259a6.437,6.437,0,0,1,.608-.331c.131-.063.259-.131.4-.185a6.324,6.324,0,0,1,.732-.228c.123-.031.24-.073.37-.1a5.992,5.992,0,0,1,2.4-.013c.131.026.247.081.37.116a6.078,6.078,0,0,1,.778.246c.135.058.254.142.384.207a6.457,6.457,0,0,1,.662.36c.123.087.237.2.358.294a6.271,6.271,0,0,1,.553.457c.117.116.208.254.316.379a6.146,6.146,0,0,1,.438.531,4.829,4.829,0,0,1,.247.456,5.576,5.576,0,0,1,.319.587c.07.164.109.344.164.517a5.86,5.86,0,0,1,.2.635c.039.179.04.37.061.554a5.688,5.688,0,0,1,.069.686,1.249,1.249,0,0,0-.01.134,5.955,5.955,0,0,1-.955,3.2A1.238,1.238,0,1,0,61.543,40.4a8.523,8.523,0,0,0,1.251-3.393c.036,0,.067-.009.1-.009a6.167,6.167,0,0,1,5.539,8.872c-.114-.029-.228-.066-.341-.086a7.044,7.044,0,0,0-1.495-.153A7.347,7.347,0,0,0,60.673,48.6a1.233,1.233,0,1,0,1.973,1.48A4.9,4.9,0,0,1,66.6,48.1a4.7,4.7,0,0,1,1.013.1,3.761,3.761,0,0,1,.927.3,4.416,4.416,0,0,1,1.017.579,4.966,4.966,0,0,1,1.976,3.948ZM66.6,28.462v6.907c-.053-.026-.11-.043-.163-.068-.2-.09-.4-.175-.617-.247-.106-.039-.214-.072-.322-.107-.169-.054-.34-.1-.513-.145-.131-.034-.261-.066-.393-.093-.153-.031-.308-.053-.463-.075s-.284-.046-.427-.059c-.264-.026-.532-.04-.8-.04h-.087c-.014-.093-.037-.185-.053-.279-.021-.123-.042-.235-.068-.351-.034-.157-.076-.31-.123-.461-.031-.11-.059-.221-.093-.328-.052-.159-.113-.314-.173-.47-.039-.1-.07-.193-.111-.286-.078-.179-.164-.352-.253-.523-.034-.066-.063-.134-.1-.2a7.5,7.5,0,0,0-.416-.682c-.03-.046-.066-.086-.1-.131-.123-.174-.247-.344-.38-.508-.059-.073-.123-.14-.186-.211-.112-.129-.226-.258-.345-.381-.074-.074-.152-.145-.228-.217-.116-.11-.233-.22-.357-.323-.084-.072-.17-.138-.257-.206q-.185-.145-.37-.28c-.093-.065-.187-.123-.284-.188-.123-.083-.259-.163-.392-.24-.1-.057-.2-.111-.3-.164-.137-.072-.276-.138-.417-.2-.1-.047-.208-.093-.314-.137-.147-.059-.3-.112-.447-.163-.106-.037-.211-.075-.319-.108-.159-.046-.32-.085-.482-.123-.1-.025-.208-.052-.314-.073-.181-.036-.37-.061-.55-.086-.092-.011-.18-.028-.273-.037a8.293,8.293,0,0,0-.844-.045c-.285,0-.575.016-.863.043-.094.01-.185.028-.278.041-.187.024-.37.048-.555.085-.108.021-.213.052-.319.076-.164.039-.327.078-.493.123-.11.033-.217.074-.326.112-.151.052-.3.1-.448.164-.11.046-.216.1-.323.146-.14.064-.279.123-.414.2-.107.057-.21.117-.313.178-.131.076-.261.153-.387.234-.1.066-.2.135-.3.206-.123.087-.247.175-.357.267-.1.075-.187.153-.279.232-.111.1-.222.2-.329.3-.087.084-.172.169-.257.257-.1.107-.2.216-.3.328-.079.092-.158.185-.233.28-.093.116-.18.234-.266.355-.071.1-.142.2-.208.3-.081.123-.157.247-.231.381-.061.1-.123.211-.181.319-.069.132-.132.268-.195.4-.052.111-.1.222-.152.335-.057.14-.106.284-.155.427-.041.116-.086.231-.123.349-.046.148-.08.3-.117.453-.028.123-.061.233-.085.353-.032.161-.053.326-.075.493-.016.114-.038.227-.049.343v.022c-.052.019-.1.047-.151.066-.159.06-.31.133-.463.2a7.072,7.072,0,0,0-.635.316c-.148.086-.289.18-.431.276a6.084,6.084,0,0,0-.558.408c-.132.109-.258.221-.382.338-.167.158-.325.322-.477.493a4.7,4.7,0,0,0-.326.387c-.142.185-.27.379-.394.576-.088.14-.178.278-.257.423a7.052,7.052,0,0,0-.306.661c-.062.146-.123.287-.18.435a7.173,7.173,0,0,0-.211.782c-.03.132-.072.259-.1.392a7.16,7.16,0,0,0-.02,2.367V43.1a5.926,5.926,0,0,0-.534.433c-.017.014-.034.028-.051.044a6,6,0,0,0-.528.552c-.057.067-.106.139-.159.208-.108.139-.213.28-.307.426-.054.086-.1.173-.154.261-.081.142-.158.285-.228.432q-.067.141-.123.285c-.063.151-.117.307-.168.465-.031.1-.063.191-.089.288-.047.175-.081.353-.112.532-.015.085-.035.169-.046.255a5.649,5.649,0,0,0,.022,1.742c.013.089.033.176.051.264a6.186,6.186,0,0,0,.18.694c.017.052.023.106.04.158-.023.026-.039.057-.063.083a6.18,6.18,0,0,0-.607.806c-.008.014-.014.027-.022.041a5.979,5.979,0,0,0-.43.864c-.023.057-.048.112-.069.169a5.974,5.974,0,0,0-.265.939c-.014.064-.022.123-.034.192A6.306,6.306,0,0,0,37,54.268a6.174,6.174,0,0,0,6.167,6.167H51.8v11.1H32.067v-33.3A1.233,1.233,0,0,0,30.833,37H13.567a1.233,1.233,0,0,0-1.233,1.233v33.3H7.4V28.462L37,10.085Zm0,0" transform="translate(0 0)"/>
    <path id="Path_92" data-name="Path 92" d="M199.4,118.8a7.4,7.4,0,1,0-7.4-7.4A7.4,7.4,0,0,0,199.4,118.8Zm-4.758-6.167h3.525v3.525A4.932,4.932,0,0,1,194.642,112.633Zm5.991,3.525v-3.525h3.525A4.932,4.932,0,0,1,200.633,116.158Zm3.525-5.991h-3.525v-3.525A4.932,4.932,0,0,1,204.158,110.167Zm-5.991-3.525v3.525h-3.525A4.932,4.932,0,0,1,198.167,106.642Zm0,0" transform="translate(-162.4 -87.966)"/>
  </g>
</svg>
