<svg id="Group_19" data-name="Group 19" xmlns="http://www.w3.org/2000/svg" width="89" height="89" viewBox="0 0 89 89">
  <g id="Group_18" data-name="Group 18">
    <path id="Path_89" data-name="Path 89" d="M197.351,150.6a4.362,4.362,0,0,0-.762.067,5.924,5.924,0,0,0-10.342,0,4.363,4.363,0,0,0-.762-.067,4.455,4.455,0,0,0-4.45,4.45,4.368,4.368,0,0,0,.274,1.483H175.1v-8.9h7.417A1.484,1.484,0,0,0,184,146.151V86.817a1.484,1.484,0,0,0-1.483-1.483h-44.5a1.484,1.484,0,0,0-1.483,1.483v71.2a1.484,1.484,0,0,0,1.483,1.483h59.333a4.45,4.45,0,1,0,0-8.9ZM175.1,88.3h5.933v8.9H175.1Zm0,11.867h5.933v8.9H175.1Zm0,11.867h5.933v8.9H175.1Zm0,11.867h5.933v8.9H175.1Zm0,11.867h5.933v8.9H175.1Zm-29.667,20.767H139.5v-8.9h5.933Zm0-11.867H139.5v-8.9h5.933Zm0-11.867H139.5v-8.9h5.933Zm0-11.867H139.5v-8.9h5.933Zm0-11.867H139.5v-8.9h5.933Zm0-11.867H139.5V88.3h5.933Zm8.9,59.333H148.4v-8.9h5.933Zm0-11.867H148.4v-8.9h5.933Zm0-11.867H148.4v-8.9h5.933Zm0-11.867H148.4v-8.9h5.933Zm0-11.867H148.4v-8.9h5.933Zm0-11.867H148.4V88.3h5.933Zm8.9,59.333H157.3v-8.9h5.933Zm0-11.867H157.3v-8.9h5.933Zm0-11.867H157.3v-8.9h5.933Zm0-11.867H157.3v-8.9h5.933Zm0-11.867H157.3v-8.9h5.933Zm0-11.867H157.3V88.3h5.933Zm8.9,59.333H166.2v-8.9h5.933Zm0-11.867H166.2v-8.9h5.933Zm0-11.867H166.2v-8.9h5.933Zm0-11.867H166.2v-8.9h5.933Zm0-11.867H166.2v-8.9h5.933Zm0-11.867H166.2V88.3h5.933Zm25.217,59.333H185.484a1.483,1.483,0,0,1,0-2.967,1.466,1.466,0,0,1,.8.242,1.483,1.483,0,0,0,2.249-.912,2.955,2.955,0,0,1,5.761,0,1.483,1.483,0,0,0,2.249.912,1.513,1.513,0,0,1,2.287,1.241A1.486,1.486,0,0,1,197.351,156.534Z" transform="translate(-112.801 -70.501)" fill="#fff"/>
    <path id="Path_90" data-name="Path 90" d="M32.633,10.383V5.933H43.017A1.484,1.484,0,0,0,44.5,4.45V2.967h5.933V4.45a1.484,1.484,0,0,0,1.483,1.483H62.3V8.9H37.083a1.483,1.483,0,1,0,0,2.967H74.167V73.394a1.483,1.483,0,0,0,2.967,0V10.383A1.484,1.484,0,0,0,75.65,8.9H65.267V4.45a1.484,1.484,0,0,0-1.483-1.483H53.4V1.483A1.484,1.484,0,0,0,51.917,0h-8.9a1.484,1.484,0,0,0-1.483,1.483V2.967H31.15A1.484,1.484,0,0,0,29.667,4.45V8.9H19.283A1.484,1.484,0,0,0,17.8,10.383v75.65H8.9V79.95a7.429,7.429,0,0,0,5.933-7.267c0-.193-.084-19.283-7.417-19.283S0,72.49,0,72.683A7.429,7.429,0,0,0,5.933,79.95v6.083H1.483a1.483,1.483,0,0,0,0,2.967h17.8a1.484,1.484,0,0,0,1.483-1.483V11.867H31.15A1.484,1.484,0,0,0,32.633,10.383ZM2.967,72.683c0-7.39,1.985-16.317,4.45-16.317s4.45,8.927,4.45,16.317a4.45,4.45,0,0,1-8.9,0Z" transform="translate(0)" fill="#fff"/>
  </g>
</svg>
