<svg xmlns="http://www.w3.org/2000/svg" width="19.037" height="19.017" viewBox="0 0 19.037 19.017">
  <g id="Group_25" data-name="Group 25" transform="translate(0 0)">
    <g id="_2225961208944" transform="translate(0 0)">
      <g id="Group_1" data-name="Group 1" transform="translate(0 0)">
        <path id="WhatsApp" d="M8428.037,10527.258a9.347,9.347,0,0,1-13.85,8.122l-5.187,1.636,1.694-4.969a9.12,9.12,0,0,1-1.335-4.789,9.339,9.339,0,0,1,18.678,0Zm-9.339-7.782a7.834,7.834,0,0,0-7.863,7.782,7.682,7.682,0,0,0,1.5,4.569l-.977,2.895,3.011-.958a7.81,7.81,0,1,0,4.332-14.288Zm4.708,9.918a1.44,1.44,0,0,0-.438-.26c-.22-.12-1.355-.658-1.558-.739-.219-.079-.358-.118-.518.121-.159.219-.6.738-.719.878-.14.159-.279.179-.5.06a5.683,5.683,0,0,1-1.856-1.117,6.422,6.422,0,0,1-1.256-1.577.311.311,0,0,1,.1-.459c.1-.1.222-.278.34-.4a1.235,1.235,0,0,0,.22-.378.407.407,0,0,0-.02-.4c-.041-.119-.5-1.236-.7-1.7s-.378-.379-.519-.379c-.12,0-.279-.021-.438-.021a.809.809,0,0,0-.6.3,2.456,2.456,0,0,0-.817,1.9,4.412,4.412,0,0,0,.938,2.335,9.341,9.341,0,0,0,3.912,3.432c2.334.919,2.334.62,2.754.58a2.408,2.408,0,0,0,1.557-1.077A1.962,1.962,0,0,0,8423.406,10529.394Z" transform="translate(-8409 -10517.999)" fill-rule="evenodd"/>
      </g>
    </g>
  </g>
</svg>
