<svg xmlns="http://www.w3.org/2000/svg" width="18.085" height="19.136" viewBox="0 0 18.085 19.136">
  <g id="Group_24" data-name="Group 24" transform="translate(0 0)">
    <g id="_2225961218096" transform="translate(0)">
      <path id="Path_5" data-name="Path 5" d="M8408.509,11813.136a.89.89,0,0,1-.321-.06.767.767,0,0,1-.458-.718c0-.34-.041-1-.06-1.576-.021-.34-.041-.639-.041-.879a5.354,5.354,0,0,1-2.753-2.114,6.969,6.969,0,0,1-1.078-3.113,16.354,16.354,0,0,1,.279-5.986,5.294,5.294,0,0,1,3.532-3.972,13.646,13.646,0,0,1,4.81-.718c.438,0,.916.019,1.517.039a12.688,12.688,0,0,1,3.093.44,5.925,5.925,0,0,1,3.112,1.715,5.834,5.834,0,0,1,1.179,2.355,15.571,15.571,0,0,1,.318,5.487,10.331,10.331,0,0,1-.519,2.693,5.2,5.2,0,0,1-3.812,3.293,19.866,19.866,0,0,1-4.889.6c-.239,0-.5,0-.738-.02a.531.531,0,0,0-.041.04c0,.021-.019.021-.04.039-.776.758-1.955,1.737-2.414,2.114a1.647,1.647,0,0,1-.161.141A.731.731,0,0,1,8408.509,11813.136Zm3.91-17.579a12.076,12.076,0,0,0-4.27.618,3.844,3.844,0,0,0-2.575,2.873,15.2,15.2,0,0,0-.24,5.448,5.368,5.368,0,0,0,.839,2.434,3.841,3.841,0,0,0,2.136,1.558,1.086,1.086,0,0,1,.858,1.077c0,.2.019.659.058,1.157v.02c.42-.38.9-.8,1.277-1.157a1.508,1.508,0,0,1,1.157-.538c.261.02.5.02.76.02a17.971,17.971,0,0,0,4.51-.558,3.612,3.612,0,0,0,2.734-2.335,8.615,8.615,0,0,0,.438-2.275,14.458,14.458,0,0,0-.279-4.949,4.667,4.667,0,0,0-.858-1.755,4.6,4.6,0,0,0-2.355-1.218,13.014,13.014,0,0,0-2.733-.4C8413.3,11795.557,8412.836,11795.557,8412.419,11795.557Z" transform="translate(-8403.651 -11794)" fill-rule="evenodd"/>
      <path id="Path_6" data-name="Path 6" d="M8614.736,12014.74a2,2,0,0,1-.719,1.259,1.208,1.208,0,0,1-1.357.359c-.4-.159-.8-.34-1.2-.54a11.383,11.383,0,0,1-3.232-2.454,10.984,10.984,0,0,1-2.474-4.11.9.9,0,0,1,.261-1.039,8.077,8.077,0,0,1,.938-.716.624.624,0,0,1,.737.058,5.285,5.285,0,0,1,1.438,1.936.6.6,0,0,1-.159.719c-.141.1-.241.2-.359.3a.654.654,0,0,0-.261.858,4.033,4.033,0,0,0,1.736,2.075,5.658,5.658,0,0,0,.86.4.541.541,0,0,0,.617-.22c.1-.12.179-.222.26-.32a.8.8,0,0,1,1.018-.2c.56.381,1.116.779,1.656,1.2C8614.637,12014.42,8614.676,12014.642,8614.736,12014.74Z" transform="translate(-8601.658 -12003.146)" fill-rule="evenodd"/>
      <path id="Path_7" data-name="Path 7" d="M8822.646,11949.026a.367.367,0,0,1-.379-.378,4.879,4.879,0,0,0-4.889-4.87.4.4,0,0,1-.379-.4.381.381,0,0,1,.379-.38,5.659,5.659,0,0,1,5.666,5.648A.382.382,0,0,1,8822.646,11949.026Z" transform="translate(-8808.752 -11940.026)" fill-rule="evenodd"/>
      <path id="Path_8" data-name="Path 8" d="M8821.21,12019.589a.366.366,0,0,1-.38-.378,3.449,3.449,0,0,0-3.451-3.433.4.4,0,0,1-.379-.4.381.381,0,0,1,.379-.381,4.217,4.217,0,0,1,4.23,4.212A.383.383,0,0,1,8821.21,12019.589Z" transform="translate(-8808.752 -12010.59)" fill-rule="evenodd"/>
      <path id="Path_9" data-name="Path 9" d="M8819.772,12090.153a.378.378,0,0,1-.378-.38,2.023,2.023,0,0,0-2.016-2.015.379.379,0,0,1,0-.759,2.785,2.785,0,0,1,2.793,2.773A.384.384,0,0,1,8819.772,12090.153Z" transform="translate(-8808.752 -12081.152)" fill-rule="evenodd"/>
    </g>
  </g>
</svg>
