<svg xmlns="http://www.w3.org/2000/svg" width="19.308" height="19.307" viewBox="0 0 19.308 19.307">
  <g id="Group_23" data-name="Group 23" transform="translate(0 -0.001)">
    <path id="Path_4" data-name="Path 4" d="M10963.582,13265.143c-.3.353-1.022.9-1.281,1.167l-3,2.714a.352.352,0,0,0-.11.316.348.348,0,0,0,.183.279,31.8,31.8,0,0,1,3.616,2.387c.3.219.692.327.886-.1.147-.293.854-3.846.985-4.49.16-.731.329-1.521.487-2.252.11-.521.634-2-.327-1.86-.281.035-1.631.605-2.008.752l-5.962,2.3c-.841.316-3.142.963-1.485,1.448,2.371.719,1.85.9,3.006.2l4.21-2.655a3.087,3.087,0,0,1,.669-.4.1.1,0,0,1,.135.05A.115.115,0,0,1,10963.582,13265.143Z" transform="translate(-10951.415 -13257.521)" fill-rule="evenodd"/>
    <g id="визитка_готов">
      <path id="Path_101" data-name="Path 101" d="M8437.656,19803.412a8.281,8.281,0,1,0,5.815,2.426A8.17,8.17,0,0,0,8437.656,19803.412Zm-6.83,1.412a9.664,9.664,0,1,1-2.825,6.826A9.639,9.639,0,0,1,8430.826,19804.824Z" transform="translate(-8428.001 -19801.998)"/>
    </g>
  </g>
</svg>
