<svg xmlns="http://www.w3.org/2000/svg" width="17.657" height="17.657" viewBox="0 0 17.657 17.657">
  <g id="Group_26" data-name="Group 26" transform="translate(0 0)">
    <g id="insta">
      <path id="Path_10" data-name="Path 10" d="M3277.785,7615h-7.912a4.878,4.878,0,0,0-4.873,4.873v7.911a4.878,4.878,0,0,0,4.873,4.873h7.912a4.878,4.878,0,0,0,4.872-4.873v-7.911A4.878,4.878,0,0,0,3277.785,7615Zm.784,2.951a1.147,1.147,0,1,0,.813.336A1.152,1.152,0,0,0,3278.569,7617.951Zm-4.741,1.328a4.549,4.549,0,1,0,4.549,4.549A4.554,4.554,0,0,0,3273.828,7619.279Zm0,7.532a2.983,2.983,0,1,1,2.983-2.983A2.987,2.987,0,0,1,3273.828,7626.811Zm7.262.973a3.31,3.31,0,0,1-3.305,3.307h-7.912a3.31,3.31,0,0,1-3.306-3.307v-7.911a3.309,3.309,0,0,1,3.306-3.306h7.912a3.309,3.309,0,0,1,3.305,3.306v7.911Z" transform="translate(-3265 -7615)" fill-rule="evenodd"/>
    </g>
  </g>
</svg>
