<?xml version="1.0" standalone="no"?>
<!DOCTYPE svg PUBLIC "-//W3C//DTD SVG 20010904//EN"
 "http://www.w3.org/TR/2001/REC-SVG-20010904/DTD/svg10.dtd">
<svg version="1.0" xmlns="http://www.w3.org/2000/svg"
 width="102.000000pt" height="102.000000pt" viewBox="0 0 102.000000 102.000000"
 preserveAspectRatio="xMidYMid meet">
<metadata>
Created by potrace 1.11, written by Peter Selinger 2001-2013
</metadata>
<g transform="translate(0.000000,102.000000) scale(0.100000,-0.100000)"
fill="#000000" stroke="none">
<path d="M0 595 l0 -365 345 0 345 0 37 -40 c35 -37 42 -40 93 -40 52 0 57 -3
99 -45 24 -25 47 -45 50 -45 3 0 14 11 23 24 16 23 16 24 -37 76 -49 48 -56
52 -101 52 -42 1 -54 6 -86 36 l-38 36 0 338 0 338 -365 0 -365 0 0 -365z"/>
</g>
</svg>
